<?xml version="1.0" encoding="UTF-8"?>
<svg id="Camada_1" data-name="Camada 1" xmlns="http://www.w3.org/2000/svg" viewBox="0 0 145.24 123.73">
  <defs>
    <style>
      .cls-1 {
        fill: #00008e;
        stroke: #fff;
        stroke-miterlimit: 10;
        stroke-width: .75px;
      }
    </style>
  </defs>
  <path class="cls-1" d="M108.76,1.52l11.97,9.1,9.81-3.2,9.12,2.69,5.11,14.06-1.32.57-15.76,8.79-9.28-7.65-26.52,9.51-5.43,13.39,8.8,6.51,7.43-.72-5.27,4.86-3.32,17.78-15.92,13.44,3.43,6.25-5.48,13.85-10.91,8.06-4.74-9.1-11.28,13.59-16.03-6.36-6.54-9.82-1.37-17.62-6.75-.21-8.01-13.64.11-13.54-7.33-.98L.43,46.89l10.07-4.55,1.74-8.22,19.14,8.53,2.95,6.2,15.34,4.29-1.37-28.63,4.85-3.93,10.23.21,11.44-16.13L90.21.38l18.56,1.14Z"/>
</svg>