<?xml version="1.0" encoding="UTF-8"?><svg id="Layer_1" xmlns="http://www.w3.org/2000/svg" viewBox="0 0 185.02 40"><defs><style>.cls-1,.cls-2{fill:#fff;}.cls-2{fill-rule:evenodd;}</style></defs><path class="cls-1" d="m166.99,15.44c-.06,0-.12-.02-.18-.05-.06-.03-.1-.07-.14-.11-.04-.05-.07-.1-.09-.16-.02-.06-.03-.12-.02-.18.08-.84-.02-1.68-.29-2.47-.27-.79-.71-1.52-1.28-2.14-.57-.61-1.27-1.1-2.04-1.43-.77-.33-1.61-.49-2.45-.47-.12,0-.24-.05-.33-.14-.09-.09-.14-.21-.14-.33s.05-.24.14-.33c.09-.09.21-.14.33-.14.23.01.45.01.68,0,1.67-.18,3.22-.93,4.39-2.13,1.17-1.2,1.89-2.77,2.03-4.44,0-.12.06-.23.15-.31.09-.08.2-.12.32-.12.06,0,.12.02.18.05.05.03.1.07.14.11.04.05.07.1.09.16.02.06.03.12.02.18-.08.83.02,1.68.29,2.47.27.79.7,1.52,1.27,2.14.57.61,1.26,1.1,2.04,1.43.77.33,1.6.49,2.44.47.12,0,.24.05.33.14.09.09.14.21.14.33s-.05.24-.14.33c-.09.09-.21.14-.33.14-1.78.03-3.49.72-4.8,1.93-1.31,1.21-2.12,2.86-2.28,4.64,0,.12-.06.23-.15.31-.09.08-.2.12-.32.12Z"/><path class="cls-2" d="m58.35,2.52c0-1.39,1.14-2.52,2.54-2.52h4.43c1,0,1.97.34,2.74.97l1.35,1.09.03.03s.06-.02.09-.03c2.43-.77,5.38-.92,8.39-.92s5.96.15,8.39.92c.03,0,.06.02.09.03l.03-.03,1.35-1.09c.77-.63,1.74-.97,2.74-.97h4.43c1.4,0,2.54,1.13,2.54,2.52v1.56c0,1.2-.51,2.35-1.41,3.16l-1.09.98c-.53.48-1.17.83-1.86,1.02l-.26.07c1.01,2.38,1.56,4.92,1.56,6.98,0,8.27-5.17,11.84-9.73,14.99-3.59,2.48-6.8,4.69-6.8,8.73,0-4.04-3.21-6.25-6.8-8.73-4.56-3.15-9.73-6.72-9.73-14.99,0-2.06.56-4.6,1.56-6.98l-.26-.07c-.69-.19-1.33-.54-1.86-1.02l-1.09-.98c-.9-.81-1.41-1.96-1.41-3.16v-1.56Zm22.89,20.52c0,.4-.17.77-.48,1.05-.31.28-.73.44-1.17.44-.38,0-.74-.12-1.04-.33.5,1.32,1.77,2.56,3.71.56,1.71-1.86-.08-5.8-1.82-8.13-.58-.78-1.53-1.15-2.51-1.15s-1.93.37-2.51,1.15c-1.74,2.33-3.52,6.27-1.82,8.13,1.94,2.01,3.21.76,3.71-.56-.29.21-.66.33-1.04.33-.44,0-.86-.16-1.17-.44-.31-.28-.48-.66-.48-1.05h6.61Zm-9.64-11.64h-4.61l3.63,2.87c.8.63,1.97.43,2.46-.43.62-1.08-.2-2.45-1.48-2.45Zm12.66,0h4.61l-3.63,2.87c-.8.63-1.97.43-2.46-.43-.62-1.08.2-2.45,1.48-2.45Z"/><path class="cls-1" d="m103.01,28.33h4.08v-15.39h-4.08v15.39Zm0-17.79h4.08v-3.66h-4.08v3.66Z"/><path class="cls-1" d="m109.71,33.37h4.08v-6.78h.06c.87,1.32,2.28,2.19,4.44,2.19,3.96,0,6.66-3.15,6.66-8.13s-2.61-8.13-6.69-8.13c-2.1,0-3.54.99-4.53,2.34h-.09v-1.92h-3.93v20.43Zm7.71-7.98c-2.43,0-3.72-1.83-3.72-4.62s1.02-4.95,3.57-4.95,3.54,2.04,3.54,4.95-1.32,4.62-3.39,4.62Z"/><path class="cls-1" d="m133.09,28.78c3.84,0,6.48-1.86,6.48-4.95,0-3.6-2.85-4.32-5.43-4.86-2.19-.45-4.23-.57-4.23-1.89,0-1.11,1.05-1.71,2.64-1.71,1.74,0,2.79.6,2.97,2.25h3.69c-.3-3.09-2.55-5.1-6.6-5.1-3.51,0-6.27,1.59-6.27,4.92s2.7,4.11,5.46,4.65c2.1.42,4.05.57,4.05,2.04,0,1.08-1.02,1.77-2.82,1.77s-3.09-.78-3.36-2.55h-3.78c.24,3.27,2.73,5.43,7.2,5.43Z"/><path class="cls-1" d="m155.06,28.33v-15.39h-4.08v8.88c0,2.04-1.17,3.48-3.09,3.48-1.74,0-2.55-.99-2.55-2.79v-9.57h-4.05v10.26c0,3.36,1.92,5.55,5.34,5.55,2.16,0,3.36-.81,4.41-2.22h.09v1.8h3.93Z"/><path class="cls-1" d="m157.7,28.33h4.08v-8.94c0-2.04,1.11-3.36,2.76-3.36,1.5,0,2.37.9,2.37,2.64v9.66h4.08v-8.94c0-2.04,1.05-3.36,2.76-3.36,1.5,0,2.37.9,2.37,2.64v9.66h4.08v-10.35c0-3.36-1.83-5.46-5.07-5.46-1.95,0-3.57,1.02-4.62,2.7h-.06c-.75-1.62-2.31-2.7-4.26-2.7-2.13,0-3.63,1.08-4.47,2.49h-.09v-2.07h-3.93v15.39Z"/><path class="cls-1" d="m0,28.33h4.08V6.88H0v21.45Z"/><path class="cls-1" d="m14.06,28.78c4.77,0,8.04-3.54,8.04-8.13s-3.27-8.13-8.04-8.13-8.04,3.54-8.04,8.13,3.27,8.13,8.04,8.13Zm0-3.12c-2.52,0-3.9-2.01-3.9-5.01s1.38-5.04,3.9-5.04,3.9,2.04,3.9,5.04-1.41,5.01-3.9,5.01Z"/><path class="cls-1" d="m30.77,33.58c2.28,0,4.26-.54,5.55-1.74,1.14-1.05,1.83-2.52,1.83-4.68v-14.22h-3.93v1.62h-.06c-.93-1.29-2.34-2.04-4.26-2.04-3.9,0-6.66,2.94-6.66,7.53s3.36,7.35,6.78,7.35c1.95,0,3.12-.78,4.02-1.8h.09v1.68c0,2.1-1.11,3.21-3.42,3.21-1.89,0-2.76-.75-3.09-1.71h-4.05c.42,3,3,4.8,7.2,4.8Zm-.06-9.45c-2.1,0-3.48-1.53-3.48-4.14s1.38-4.2,3.45-4.2c2.46,0,3.66,1.92,3.66,4.17s-1.05,4.17-3.63,4.17Z"/><path class="cls-1" d="m48.07,28.78c4.77,0,8.04-3.54,8.04-8.13s-3.27-8.13-8.04-8.13-8.04,3.54-8.04,8.13,3.27,8.13,8.04,8.13Zm0-3.12c-2.52,0-3.9-2.01-3.9-5.01s1.38-5.04,3.9-5.04,3.9,2.04,3.9,5.04-1.41,5.01-3.9,5.01Z"/><path class="cls-1" d="m180.02,9.58c0-.69.56-1.25,1.25-1.25h2.5c.69,0,1.25.56,1.25,1.25s-.56,1.25-1.25,1.25h-2.5c-.69,0-1.25-.56-1.25-1.25Z"/></svg>