<?xml version="1.0" encoding="UTF-8"?>
<svg id="Camada_1" data-name="Camada 1" xmlns="http://www.w3.org/2000/svg" viewBox="0 0 136.6 226.04">
  <defs>
    <style>
      .cls-1 {
        fill: #00008e;
        stroke: #fff;
        stroke-miterlimit: 10;
        stroke-width: .75px;
      }
    </style>
  </defs>
  <path class="cls-1" d="M123.23,91.54l-15.4-1.84,4.15,6.66-5.75,15,10.65,8.92.65,36.29-5.8,15.21,7.9-1.78,1.2,7.71-9.55,20.72-2.6-3.72-13.1,7.24-22.25,5.61-.65,4.93-12.1,3.15-4.7-5.14-13.95-2.94-10.3,16.83-9.05,1.26-8.3-11.43-13.5-2.15,13.4-13.53-1.35-7.24,15.55-10.02,6.05-19.09-4.85-9.6,2.75-10.02-13.05-24.18,1.95-8.97,8.5-7.03-2.6-16,1.9-8.76-11.35.79.55-15.52,6.5-5.19,1.75-10.65,11.45-12.69,3.25-6.92,30.4-18.93,6.45.79,5-7.87-1.55,23.81,9.1,14.68-6.4,5.35,7.75,7.29,12.85-.94,4.35,8.81,15.65-1.57,10.05,10.91,1.35,7.97-6.35,2.46-6.6,11.33Z"/>
</svg>