<?xml version="1.0" encoding="UTF-8"?>
<svg id="Camada_1" data-name="Camada 1" xmlns="http://www.w3.org/2000/svg" viewBox="0 0 146.66 112.22">
  <defs>
    <style>
      .cls-1 {
        fill: #00008e;
        stroke: #fff;
        stroke-miterlimit: 10;
        stroke-width: .75px;
      }
    </style>
  </defs>
  <path class="cls-1" d="M41.88,9.55l1.56,14.09-4.93.85,5.99,15.79-4.88,16.27,7.35,3.67,1.86,10.84,10.62,17.17,10.93-2.82,1.41,4.47,14.85-3.4,17.52-13.08,16.97-7.81,3.07,8.56,13.59,2.18,8.36,11.59-21.1,17.38v-9.52l-8.86-1.97-17.12,4.41-5.94,10.63-13.39,2.98-22.76-13.18-22.2-23.71-11.58,2.18,3.02-23.55-18.78-12.12.25-8.61L.7,23.95l5.99-.85L10.36.56l20.99,10.42,10.52-1.44Z"/>
</svg>