<?xml version="1.0" encoding="UTF-8"?>
<svg id="Camada_1" data-name="Camada 1" xmlns="http://www.w3.org/2000/svg" viewBox="0 0 128.92 174.27">
  <defs>
    <style>
      .cls-1 {
        fill: #00008e;
        stroke: #fff;
        stroke-miterlimit: 10;
        stroke-width: .75px;
      }
    </style>
  </defs>
  <path class="cls-1" d="M44.95,4.84l7.36,8.88-.26,8.61,19.74,12.12-3.18,23.55,12.17-2.18,23.34,23.71,23.92,13.18-18.15,7.34,3.55,7.12-11.54,12.6-17.47,12.81-1.91,4.89-12.65,3.14-25.19,25.62-23.39,7.5,2.59-15.36-5.82-28.49.58-12.39-8.26-5.74-.69-11.48,4.82-5.32,1.01-17.7-11.91-15.31L.49,47.9l20.59,3.61,3.92-10.26,13.92-15.63.58-9.04-7.25,2.76-13.29-10.31L36.43.11v-.11.11l8.52,4.73Z"/>
</svg>